<?xml version="1.0"?><svg width="484.468" height="422.742" xmlns="http://www.w3.org/2000/svg">
 <metadata id="metadata4822">image/svg+xml</metadata>
 <g>
  <title>Layer 1</title>
  <g opacity="0.95" id="svg_1">
   <path d="m332.634003,281.016998c0,0 0,0 0,0c0,0 0,0 0,0c0,0 0,0 0,0c0,0 0,0 0,0c0,0 0,0 0,0c0,0 0,0 0,0c0,0.001007 0,0.001007 -0.001007,0.001007c0.057007,0.14798 -0.195984,0.182983 -0.286011,0.265991c-3.116974,-4.815002 3.169006,-6.662994 8.062012,-7.567993c21.04599,-0.196991 29.429016,25.845001 29.246002,40.990997c-0.609985,50.561005 -53.256989,87.686005 -99.856995,103.421997l208.630981,-0.694c12.379028,-48.40799 -39.885986,-148.902985 -93.996979,-165.959c-18.229004,-5.746002 -50.078003,-5.070999 -57.177002,15.974991c-1.480011,4.387024 -1.209991,12.210022 4.798981,13.770996" fill="#007fff" id="svg_2"/>
  </g>
  <g opacity="0.95" id="svg_3">
   <path d="m200.634003,281.016998c0,0 0,0 0,0c0,0 0,0 0,0c0,0 0,0 0,0c0,0 0,0 0,0c0,0 0,0 0,0c0,0 0,0 0,0c0,0.001007 0,0.001007 -0.001007,0.001007c0.057007,0.14798 -0.195999,0.182983 -0.285995,0.265991c-3.117004,-4.815002 3.169006,-6.662994 8.061996,-7.567993c21.046005,-0.196991 29.429001,25.845001 29.246002,40.990997c-0.610001,50.561005 -53.257004,87.686005 -99.856995,103.421997l208.630981,-0.694c12.379028,-48.40799 -39.885986,-148.902985 -93.996979,-165.959c-18.229004,-5.746002 -50.078003,-5.070999 -57.177002,15.974991c-1.480011,4.387024 -1.210007,12.210022 4.798996,13.770996" stroke-width="0" stroke="#000000" fill="#007fff" id="svg_4"/>
  </g>
  <g opacity="0.95" id="layer1">
   <path d="m64.633598,281.016998c0,0 0,0 0,0c0,0 0,0 0,0c0,0 0,0 0,0c0,0 0,0 0,0c0,0 0,0 0,0c0,0 0,0 0,0c0.000099,0.001007 -0.000099,0.001007 -0.000099,0.001007c0.056297,0.14798 -0.196999,0.182983 -0.286697,0.265991c-3.116901,-4.815002 3.1689,-6.662994 8.0625,-7.567993c21.045998,-0.196991 29.428696,25.845001 29.245697,40.990997c-0.610001,50.561005 -53.257,87.686005 -99.857099,103.421997l208.631101,-0.694c12.378998,-48.40799 -39.886002,-148.902985 -93.997002,-165.959c-18.229401,-5.746002 -50.077896,-5.070999 -57.177097,15.974991c-1.480003,4.387024 -1.209602,12.210022 4.798801,13.770996" fill="#007fff" id="svg_6"/>
  </g>
 </g>
</svg>